<svg class="nc-icon glyph" xmlns="http://www.w3.org/2000/svg" xmlns:xlink="http://www.w3.org/1999/xlink" x="0px" y="0px" width="48px" height="48px" viewBox="0 0 48 48">
<g>
<path fill="#6d6d6d" d="M46,23h-3.051C42.442,13.323,34.677,5.558,25,5.051V2c0-0.552-0.447-1-1-1s-1,0.448-1,1v3.051
	C13.323,5.558,5.558,13.323,5.051,23H2c-0.553,0-1,0.448-1,1s0.447,1,1,1h3.051C5.558,34.677,13.323,42.442,23,42.949V46
	c0,0.552,0.447,1,1,1s1-0.448,1-1v-3.051C34.677,42.442,42.442,34.677,42.949,25H46c0.553,0,1-0.448,1-1S46.553,23,46,23z
	 M25,40.949V38c0-0.552-0.447-1-1-1s-1,0.448-1,1v2.949C14.425,40.447,7.553,33.575,7.051,25H10c0.553,0,1-0.448,1-1s-0.447-1-1-1
	H7.051C7.553,14.425,14.425,7.553,23,7.051V10c0,0.552,0.447,1,1,1s1-0.448,1-1V7.051C33.575,7.553,40.447,14.425,40.949,23H38
	c-0.553,0-1,0.448-1,1s0.447,1,1,1h2.949C40.447,33.575,33.575,40.447,25,40.949z"></path>
<circle data-color="color-2" fill="#6d6d6d" cx="24" cy="24" r="4"></circle>
</g>
</svg>