<svg class="nc-icon glyph" xmlns="http://www.w3.org/2000/svg" xmlns:xlink="http://www.w3.org/1999/xlink" x="0px" y="0px" width="48px" height="48px" viewBox="0 0 48 48">
<g>
<path fill="#ff9e00" d="M24,1C11.318,1,1,11.318,1,24s10.318,23,23,23s23-10.318,23-23S36.682,1,24,1z M25,44.949V40
	c0-0.552-0.448-1-1-1s-1,0.448-1,1v4.949C12.22,44.438,3.562,35.78,3.051,25H8c0.552,0,1-0.448,1-1s-0.448-1-1-1H3.051
	C3.562,12.22,12.22,3.562,23,3.051V8c0,0.552,0.448,1,1,1s1-0.448,1-1V3.051C35.78,3.562,44.438,12.22,44.949,23H40
	c-0.552,0-1,0.448-1,1s0.448,1,1,1h4.949C44.438,35.78,35.78,44.438,25,44.949z"></path>
<path data-color="color-2" fill="#ff9e00" d="M33.606,13.081l-14,6c-0.236,0.101-0.424,0.289-0.525,0.525l-6,14
	c-0.161,0.376-0.077,0.812,0.212,1.101C13.484,34.898,13.74,35,14,35c0.133,0,0.267-0.026,0.394-0.081l14-6
	c0.236-0.101,0.424-0.289,0.525-0.525l6-14c0.161-0.376,0.077-0.812-0.212-1.101C34.417,13.003,33.981,12.919,33.606,13.081z
	 M15.904,32.096l4.858-11.334l6.477,6.477L15.904,32.096z"></path>
</g>
</svg>